<svg xmlns="http://www.w3.org/2000/svg" width="25" height="24" viewBox="0 0 25 24" fill="none">
    <path d="M10.5 12C10.5 12.5304 10.7107 13.0391 11.0858 13.4142C11.4609 13.7893 11.9696 14 12.5 14C13.0304 14 13.5391 13.7893 13.9142 13.4142C14.2893 13.0391 14.5 12.5304 14.5 12C14.5 11.4696 14.2893 10.9609 13.9142 10.5858C13.5391 10.2107 13.0304 10 12.5 10C11.9696 10 11.4609 10.2107 11.0858 10.5858C10.7107 10.9609 10.5 11.4696 10.5 12Z" stroke="#11005E" stroke-width="2" stroke-linecap="round" stroke-linejoin="round"/>
    <path d="M21.5 12C19.1 16 16.1 18 12.5 18C8.9 18 5.9 16 3.5 12C5.9 8 8.9 6 12.5 6C16.1 6 19.1 8 21.5 12Z" stroke="#11005E" stroke-width="2" stroke-linecap="round" stroke-linejoin="round"/>
</svg>